<svg xmlns="http://www.w3.org/2000/svg" viewBox="0 0 145 130" aria-hidden="true" role="img"><polygon points="145,18.601 73.396,10.394 72.487,18.338 71.58,10.422 0,18.622 12.049,123.807	72.489,116.884 132.95,123.809" fill="var(--illustration-color-13, #e8f1e8)"></polygon><rect x="28.472" width="88.055" height="130" fill="var(--illustration-color-1, #d5e0d5)"></rect><rect x="46.352" y="99.789" width="53.601" height="16.229" fill="var(--illustration-color-2, #14a800)"></rect><path d="M98.925 40.338c0 14.554-11.802 26.361-26.354 26.361-14.56 0-26.36-11.807-26.36-26.361 0-14.552 11.801-26.355 26.36-26.355 14.552 0 26.354 11.804 26.354 26.355" fill="var(--illustration-color-11, #f7faf7)"></path><path d="M81.664 37.781c0 4.764-3.865 8.633-8.626 8.633-4.769 0-8.629-3.869-8.629-8.633 0-4.763 3.86-8.633 8.629-8.633 4.761 0 8.626 3.87 8.626 8.633m-.971 9.439a12.184 12.184 0 01-6.476 2.661c-.396.043-.791.078-1.19.078-.402 0-.798-.035-1.194-.081a12.085 12.085 0 01-6.457-2.666A18.452 18.452 0 0055.05 59.997c4.66 4.154 10.781 6.706 17.519 6.706 7.108 0 13.541-2.832 18.285-7.409A18.44 18.44 0 0080.693 47.22" fill="var(--illustration-color-15, #9aaa97)"></path><path d="M109.936 122.305l-6.063-6.059 5.198-3.309c.128-.121.063-.34-.11-.385l-18.143-6.512a.227.227 0 00-.281.271l6.518 18.149c.04.177.262.235.387.106l3.31-5.189 6.056 6.053c.16.162.424.162.584 0l2.545-2.545a.411.411 0 00-.001-.58z" fill="var(--white, #ffffff)"></path><path d="M96.029 80.154H48.971a1.568 1.568 0 110-3.136H96.03c.867 0 1.566.701 1.566 1.568s-.7 1.568-1.567 1.568zm-3.102 9.319H52.075a1.568 1.568 0 110-3.135h40.852a1.567 1.567 0 110 3.135z" fill="var(--illustration-color-4, #beccbe)"></path></svg>